<?xml version="1.0" standalone="no"?>
<!DOCTYPE svg PUBLIC "-//W3C//DTD SVG 20010904//EN"
 "http://www.w3.org/TR/2001/REC-SVG-20010904/DTD/svg10.dtd">
<svg version="1.0" xmlns="http://www.w3.org/2000/svg"
 width="150.000000pt" height="150.000000pt" viewBox="0 0 150.000000 150.000000"
 preserveAspectRatio="xMidYMid meet">
<metadata>
Created by potrace 1.14, written by Peter Selinger 2001-2017
</metadata>
<g transform="translate(0.000000,150.000000) scale(0.100000,-0.100000)"
fill="#000000" stroke="none">
<path d="M609 1495 c-3 -2 -27 -7 -54 -11 -111 -14 -320 -91 -375 -137 -46
-37 -45 -42 19 -125 l60 -79 -52 -26 c-29 -14 -70 -28 -91 -32 -22 -3 -42 -7
-44 -9 -2 -2 15 -18 37 -36 39 -32 40 -33 24 -59 -9 -14 -26 -36 -37 -48 l-19
-23 24 0 c13 0 56 12 94 26 39 13 77 27 85 30 13 4 15 -38 14 -343 0 -191 4
-363 9 -381 5 -19 23 -50 41 -69 31 -35 76 -51 189 -68 120 -18 148 -28 186
-67 35 -34 40 -36 45 -20 8 23 61 63 89 67 12 1 75 13 141 25 127 25 161 43
193 104 15 27 17 75 18 394 0 318 2 362 15 358 8 -3 47 -17 85 -30 39 -14 80
-26 93 -26 22 0 22 2 -13 46 l-35 47 42 38 c23 22 39 39 37 39 -73 7 -168 43
-176 66 -2 6 22 44 53 83 l56 72 -27 29 c-46 48 -217 122 -340 145 -22 5 -47
10 -55 12 -21 6 -326 13 -331 8z m256 -200 c33 -4 63 -9 66 -11 3 -2 21 -6 40
-9 48 -8 99 -25 99 -33 -1 -4 -8 -29 -18 -57 l-17 -50 -265 2 c-146 0 -274 2
-285 2 -15 1 -25 14 -38 52 -18 51 -17 61 6 65 7 1 41 10 77 19 36 9 108 19
160 22 52 3 97 7 99 9 2 2 7 2 10 -1 4 -2 34 -7 66 -10z"/>
</g>
</svg>
